{"title":"Showgirls 1995 NC-17 DvDrip XviD AC3 5.1 greenbud1969","uid":10562141,"size":1535117439,"categoryP":"video","categoryS":"movies","magnet":"?xt=urn:btih:c10639b7905ff005abb7b97b9de276676d5a054e&amp;dn=Showgirls+1995+NC-17+DvDrip+XviD+AC3+5.1+greenbud1969&amp;tr=udp%3A%2F%2Ftracker.openbittorrent.com%3A80&amp;tr=udp%3A%2F%2Fopen.demonii.com%3A1337&amp;tr=udp%3A%2F%2Ftracker.coppersurfer.tk%3A6969&amp;tr=udp%3A%2F%2Fexodus.desync.com%3A6969","seeders":7,"leechers":7,"uploader":"greenbud1969","files":-1,"time":1405471966,"description":"General\nComplete name                            : Showgirls 1995 NC-17 Fully Exposed Edition DvDrip XviD AC3 5.1 greenbud1969\nFormat                                   : AVI\nFormat/Info                              : Audio Video Interleave\nFile size                                : 1.40 GB\nDuration                                 : 2h 11mn\nOverall bit rate                         : 1 528 Kbps\nWriting application                      : VirtualDubMod 1.5.4.1 (build 2178/release)\nWriting library                          : VirtualDubMod build 2178/release\n\nVideo\nID                                       : 0\nFormat                                   : MPEG-4 Visual\nFormat profile                           : Advanced Simple@L5\nFormat settings, BVOP                    : 1\nFormat settings, QPel                    : No\nFormat settings, GMC                     : No warppoints\nFormat settings, Matrix                  : Custom\nCodec ID                                 : XVID\nCodec ID/Hint                            : XviD\nDuration                                 : 2h 11mn\nBit rate                                 : 1 073 Kbps\nWidth                                    : 720 pixels\nHeight                                   : 320 pixels\nDisplay aspect ratio                     : 2.25:1\nFrame rate                               : 23.976 fps\nColor space                              : YUV\nChroma subsampling                       : 4:2:0\nBit depth                                : 8 bits\nScan type                                : Progressive\nCompression mode                         : Lossy\nBits/(Pixel*Frame)                       : 0.194\nStream size                              : 1 008 MiB (70%)\nWriting library                          : XviD 64\n\nAudio\nID                                       : 1\nFormat                                   : AC-3\nFormat/Info                              : Audio Coding 3\nMode extension                           : CM (complete main)\nFormat settings, Endianness              : Big\nCodec ID                                 : 2000\nDuration                                 : 2h 11mn\nBit rate mode                            : Constant\nBit rate                                 : 448 Kbps\nChannel(s)                               : 6 channels\nChannel positions                        : Front: L C R, Side: L R, LFE\nSampling rate                            : 48.0 KHz\nBit depth                                : 16 bits\nCompression mode                         : Lossy\nStream size                              : 421 MiB (29%)\nAlignment                                : Split accross interleaves\nInterleave, duration                     : 96 ms (2.30 video frames)\nInterleave, preload duration             : 96 ms\nLanguage                                 : English\n\n\nIMDb Link:  &lt;a href=&quot; http://www.imdb.com/title/tt0114436/&quot; rel=&quot;nofollow&quot; target=&quot;_NEW&quot;&gt; http://www.imdb.com/title/tt0114436/&lt;/a&gt;\n\nHigh-strung, statuesque Nomi Mallone (Elizabeth Berkely) is determined to be a dancer in Las Vegas, whatever it takes--but she starts out as a stripper. Through her seamstress roommate (Gina Ravera), Nomi catches the attention of the voracious bisexual Cristal (Gina Gershon), star of an extravagant pagan sex show called &quot;Goddess&quot; which plays nightly at the swanky Stardust Casino. Through Cristal's influence, Nomi gets a chance to audition for &quot;Goddess&quot; and is soon involved in all sorts of sordid backstage goings-on, including bitchy dueling with Cristal over Stardust head honcho Zack (Kyle McLachlan). Maligned by many critics upon its original release, SHOWGIRLS has since become a true camp classic, revived for midnight showings and beloved for its decadence, high nudity yield, and outrageously catty dialogue (courtesy of screenwriter Joe Eszterhas). Its director is Paul Verhoeven (ROBOCOP, TOTAL RECALL), so one can safely assume SHOWGIRLS' over-the-top hostility and sexuality is meant to be a satire of American culture. One of the first big-budget Hollywood movies to be released with an NC-17 rating, its lack of box office success meant few others would have the guts to follow.\n\n\nNotes\n\nIf your want to convert this movie or any of my other releases I recommend using ConvertXtoDVD or you can burn as a data disc with any programs such as CyberLink Power2Go, Roxio or Nero \n\n\nAll stand-alone divx players compatible\n\n\nSample &amp; Optional English .srt Included\n\n\nThumbnail\n\n  &lt;a href=&quot;\nhttp://i.imgur.com/MSha6Qf.jpg&quot; rel=&quot;nofollow&quot; target=&quot;_NEW&quot;&gt;\nhttp://i.imgur.com/MSha6Qf.jpg&lt;/a&gt;\n\n\nGREETZ\n\n\nBlackjesus, Hive-CM8, ViP3R, THC, SANTi, CRYS, TODE, ViCKY, AQOS, EVO, playXD, LRT, FUM, AFG and respect to all pirate groups and encoders past and present. Sharing is caring.\n\n\nALSO IF YOU HAVE ANY REQUESTS DON'T HESITATE TO ASK. I MIGHT HAVE WHAT YOUR LOOKING FOR. YOU NEVER KNOW IT NEVER HURTS TO ASK. EMAIL ME AT greenbud1969 AT hotmail dot com OR LEAVE REQUESTS IN COMMENTS.","torrent":{"xt":"urn:btih:c10639b7905ff005abb7b97b9de276676d5a054e","amp;dn":"Showgirls+1995+NC-17+DvDrip+XviD+AC3+5.1+greenbud1969","amp;tr":["udp%3A%2F%2Ftracker.openbittorrent.com%3A80","udp%3A%2F%2Fopen.demonii.com%3A1337","udp%3A%2F%2Ftracker.coppersurfer.tk%3A6969","udp%3A%2F%2Fexodus.desync.com%3A6969"],"infoHash":"c10639b7905ff005abb7b97b9de276676d5a054e","infoHashBuffer":{"type":"Buffer","data":[193,6,57,183,144,95,240,5,171,183,185,123,157,226,118,103,109,90,5,78]},"announce":[],"urlList":[]}}